<?xml version="1.0" standalone="no"?>
<!DOCTYPE svg PUBLIC "-//W3C//DTD SVG 20010904//EN"
 "http://www.w3.org/TR/2001/REC-SVG-20010904/DTD/svg10.dtd">
<svg version="1.0" xmlns="http://www.w3.org/2000/svg"
 width="1024.000000pt" height="1024.000000pt" viewBox="0 0 1024.000000 1024.000000"
 preserveAspectRatio="xMidYMid meet">

<g transform="translate(0.000000,1024.000000) scale(0.100000,-0.100000)"
fill="#000000" stroke="none">
<path d="M4020 9479 c-1890 -6 -1785 -3 -1977 -53 -189 -49 -420 -158 -577
-270 -261 -187 -470 -452 -584 -741 -63 -159 -91 -271 -119 -475 -15 -102 -17
-385 -20 -2585 -3 -1575 0 -2568 6 -2740 11 -286 29 -431 76 -604 174 -643
687 -1106 1365 -1233 l125 -23 2740 -3 c1941 -2 2778 0 2869 8 249 21 428 71
651 181 474 233 796 652 904 1174 48 234 46 124 46 3025 0 3039 5 2811 -66
3078 -128 484 -447 870 -904 1092 -179 87 -348 135 -565 161 -123 15 -1244 17
-3970 8z m1819 -799 c116 -22 255 -124 333 -244 61 -95 78 -165 78 -327 l0
-139 -184 0 -184 0 -3 123 c-4 106 -7 127 -27 158 -44 72 -16 69 -734 69 -730
0 -692 4 -735 -80 -20 -38 -23 -60 -23 -157 l0 -113 -180 0 -180 0 0 148 c0
123 4 159 20 207 28 83 70 143 153 222 77 72 155 118 227 132 63 12 1375 13
1439 1z m491 -832 l1135 -3 44 -24 c72 -38 147 -117 186 -194 l35 -70 0 -438
c0 -254 -4 -448 -10 -463 -5 -14 -25 -42 -44 -64 l-35 -39 -3 -1084 -3 -1084
-32 -68 c-55 -115 -167 -203 -304 -235 -32 -8 -662 -12 -2165 -12 -2315 -1
-2160 -4 -2283 57 -73 37 -168 133 -206 208 l-30 60 -3 988 c-2 942 -2 988 15
983 58 -18 836 -208 1153 -282 129 -30 268 -64 309 -75 44 -13 86 -18 105 -15
19 4 76 44 151 107 157 132 664 550 686 566 14 11 62 -17 334 -197 174 -116
330 -217 345 -225 39 -20 99 -19 131 3 14 9 70 53 125 98 54 44 169 134 254
199 85 65 225 174 311 242 86 68 159 123 161 123 2 0 37 -40 78 -90 77 -94 97
-108 129 -90 23 12 19 0 101 335 93 383 93 384 82 410 -19 42 10 47 -592 -96
-96 -23 -183 -46 -192 -51 -38 -19 -21 -53 62 -123 66 -55 78 -70 69 -82 -7
-8 -114 -98 -237 -201 -124 -103 -264 -220 -311 -260 -47 -40 -96 -75 -107
-78 -16 -4 -96 42 -320 187 -165 106 -321 206 -347 223 -47 29 -50 29 -88 15
-24 -9 -158 -116 -360 -289 -334 -285 -498 -420 -536 -441 -19 -10 -77 -2
-360 56 -614 123 -1097 228 -1149 250 -17 7 -44 30 -60 51 l-29 37 -3 440 -3
440 30 63 c36 78 113 161 182 199 38 20 71 29 128 34 42 3 585 5 1206 4 622
-2 1641 -4 2265 -5z m-3195 -4339 c161 -60 245 -216 245 -454 0 -227 -77 -384
-222 -451 -59 -27 -72 -29 -183 -29 -116 0 -123 1 -187 33 -108 53 -171 145
-202 294 -48 231 19 469 158 565 67 46 126 61 238 62 75 1 110 -4 153 -20z
m3177 -12 c68 -33 131 -100 164 -172 92 -201 61 -504 -67 -649 -17 -20 -61
-50 -97 -68 -65 -32 -70 -33 -192 -33 -113 1 -130 3 -182 27 -103 48 -180 156
-208 293 -16 76 -16 250 1 318 19 81 54 152 99 201 86 93 153 117 316 113 97
-3 118 -7 166 -30z m1917 17 c162 -45 257 -196 268 -424 11 -240 -80 -430
-236 -492 -47 -18 -76 -22 -176 -23 -130 0 -176 13 -253 71 -116 89 -178 333
-138 544 32 169 115 280 240 319 77 25 217 27 295 5z m-4201 -33 c64 -29 128
-98 143 -154 20 -74 13 -175 -17 -234 -23 -49 -100 -123 -126 -123 -5 0 34
-83 87 -185 53 -102 93 -190 90 -195 -3 -6 -51 -10 -106 -10 l-100 0 -84 175
-84 175 -58 0 -58 0 0 -172 0 -173 -97 -3 -98 -3 0 465 c0 296 4 466 10 468 5
2 108 1 227 -2 202 -5 222 -7 271 -29z m919 25 c15 -6 15 -134 0 -153 -7 -9
-44 -13 -123 -13 l-114 0 -2 -377 -3 -378 -92 -3 c-89 -3 -93 -2 -98 20 -3 13
-4 184 -3 380 l3 357 -115 3 -115 3 -3 79 c-2 44 1 82 7 85 11 7 639 4 658 -3z
m2606 4 c4 0 6 -208 5 -462 l-3 -463 -97 -3 -98 -3 0 464 c0 255 2 466 4 468
3 3 103 3 189 -1z m-5235 -29 c113 -51 168 -156 160 -305 -11 -201 -136 -296
-390 -296 l-67 0 -3 -147 -3 -148 -97 -3 -98 -3 0 466 0 466 223 -3 c209 -3
225 -4 275 -27z m3330 -53 l-3 -83 -192 -3 -193 -2 0 -120 0 -120 155 0 c96 0
155 -4 156 -10 0 -5 0 -39 0 -75 0 -36 0 -69 0 -75 -1 -6 -60 -10 -156 -10
l-155 0 -2 -172 -3 -173 -95 0 -95 0 -3 463 -2 462 295 0 296 0 -3 -82z m1202
-298 l0 -380 195 0 196 0 -3 -82 -3 -83 -290 0 -290 0 -3 463 -2 462 100 0
100 0 0 -380z m-4468 -1075 c33 -93 62 -177 65 -185 2 -8 32 66 65 165 34 99
63 182 65 184 6 8 130 9 142 2 8 -5 11 -86 9 -297 l-3 -289 -55 0 -55 0 0 203
c0 126 -3 192 -9 175 -8 -28 -116 -306 -120 -311 -8 -8 -67 -7 -74 2 -7 8 -86
209 -125 316 -3 8 -6 -76 -6 -187 l-1 -203 -55 0 -55 0 0 293 c0 162 3 297 7
301 4 4 38 5 76 4 l69 -3 60 -170z m800 118 c26 -76 150 -505 151 -523 2 -12
-11 -15 -57 -15 l-59 0 -17 60 -17 60 -89 3 -90 3 -15 -63 -14 -63 -58 -3
c-31 -2 -57 1 -57 5 0 20 154 569 163 581 7 9 31 12 76 10 l66 -3 17 -52z
m480 -93 c48 -80 97 -167 110 -193 l23 -48 5 193 5 193 50 -1 50 -1 3 -297 2
-297 -52 3 -52 3 -50 80 c-27 44 -80 133 -116 197 l-68 118 2 -198 1 -197 -55
0 -55 0 -3 289 c-1 169 2 292 7 295 5 3 31 6 58 6 l48 0 87 -145z m688 125 c9
-25 162 -545 164 -560 0 -6 -25 -10 -58 -10 l-60 0 -18 63 -19 62 -88 0 -88 0
-14 -62 -14 -63 -58 -3 c-42 -2 -57 0 -57 10 0 12 143 543 155 576 3 9 25 12
76 11 62 -2 72 -5 79 -24z m617 4 c45 -22 84 -64 102 -112 12 -31 3 -38 -71
-51 -32 -6 -37 -4 -43 16 -25 81 -138 89 -185 13 -46 -74 -34 -247 20 -308 25
-28 35 -32 79 -32 65 0 91 23 94 85 l2 44 -52 -3 -53 -2 0 50 0 51 110 0 110
0 0 -102 c0 -125 -19 -168 -90 -208 -60 -34 -174 -35 -236 -2 -89 46 -134 140
-134 281 0 150 43 241 135 282 57 26 156 25 212 -2z m637 3 c3 -9 4 -33 3 -52
l-3 -35 -117 -3 -117 -3 0 -69 0 -70 100 0 100 0 0 -50 0 -50 -100 0 -100 0 0
-72 0 -73 117 0 118 0 3 -52 3 -53 -180 0 -181 0 0 293 c0 162 2 296 5 299 3
3 82 6 175 6 150 0 170 -2 174 -16z m357 -88 c19 -54 49 -136 65 -182 l30 -82
58 172 c33 95 63 178 67 183 4 6 38 10 76 9 l68 -1 3 -297 2 -297 -57 3 -58 3
0 196 1 197 -62 -162 -62 -161 -37 -6 c-32 -5 -38 -3 -49 20 -10 21 -91 224
-124 314 -4 10 -5 -77 -4 -193 l4 -210 -56 0 -56 0 0 293 c0 162 3 296 6 299
3 4 38 5 77 4 l72 -3 36 -99z m832 96 l78 0 -3 -47 -3 -48 -117 -3 -118 -3 0
-69 0 -70 101 0 100 0 -3 -47 -3 -48 -97 -3 -98 -3 0 -72 0 -72 117 0 118 0 3
-52 3 -53 -180 0 -181 0 0 293 c0 162 2 296 4 298 2 2 49 3 103 2 54 -1 133
-2 176 -3z m455 -173 c54 -95 102 -182 108 -195 6 -15 9 42 9 174 l0 197 55 0
55 0 3 -297 2 -296 -49 0 c-43 0 -52 4 -69 28 -33 45 -133 212 -176 293 l-41
76 0 -196 0 -196 -55 0 -55 0 -3 284 c-1 164 2 288 7 295 5 6 30 10 60 8 l50
-4 99 -171z m767 125 l-1 -47 -68 -5 -67 -5 -2 -240 -2 -240 -60 0 -60 0 0
242 0 242 -70 3 -70 3 4 45 c1 25 4 47 6 50 2 3 90 4 197 2 l194 -3 -1 -47z"/>
<path d="M6319 6351 l-29 -29 0 -796 0 -796 -102 0 -103 0 0 508 c0 279 -3
519 -7 533 -14 50 -40 57 -223 62 -185 5 -231 -1 -257 -34 -17 -20 -18 -61
-18 -545 l0 -524 -105 0 -105 0 0 699 0 700 -24 28 -24 28 -188 3 c-129 2
-196 0 -216 -9 -61 -25 -58 12 -58 -751 l0 -698 -100 0 -100 0 0 431 0 431
-34 34 -34 34 -192 0 -192 0 -29 -29 -29 -29 0 -436 0 -436 -100 0 -100 0 0
270 c0 287 -5 326 -48 349 -13 7 -94 11 -211 11 l-191 0 -32 -29 -33 -29 -3
-286 -3 -286 -88 0 c-111 0 -124 -9 -125 -80 -1 -43 3 -55 23 -71 23 -19 66
-19 1871 -19 l1849 0 21 28 c17 21 21 36 17 67 -8 58 -34 75 -118 75 l-69 0 0
785 c0 843 1 828 -49 855 -12 6 -101 10 -216 10 l-197 0 -29 -29z"/>
<path d="M2910 3349 c-63 -26 -103 -90 -121 -194 -14 -82 -7 -221 16 -285 39
-114 150 -161 255 -107 37 18 51 33 75 82 29 59 30 63 30 210 0 137 -2 154
-24 198 -33 68 -79 100 -149 104 -32 1 -68 -2 -82 -8z"/>
<path d="M6045 3346 c-81 -35 -119 -133 -119 -301 0 -119 11 -174 46 -225 36
-52 69 -71 134 -77 152 -12 223 106 212 354 -4 89 -9 111 -34 160 -23 46 -38
63 -74 81 -50 25 -118 28 -165 8z"/>
<path d="M8014 3346 c-77 -34 -112 -109 -121 -257 -13 -221 59 -349 197 -349
85 0 144 47 176 142 14 41 19 82 18 178 0 108 -3 132 -22 175 -28 61 -57 93
-99 111 -41 18 -109 17 -149 0z"/>
<path d="M3719 3340 c0 -3 -2 -58 -2 -124 l-2 -118 95 4 c132 5 170 34 170
129 0 33 -7 48 -33 74 -28 28 -42 34 -97 39 -69 6 -129 4 -131 -4z"/>
<path d="M2020 3199 l0 -152 82 7 c49 4 95 14 113 24 58 34 81 123 50 198 -20
49 -78 73 -172 74 l-73 0 0 -151z"/>
<path d="M3087 2080 c-3 -8 -16 -61 -29 -117 l-24 -103 62 0 62 0 -28 98 c-16
53 -30 106 -33 117 -3 15 -5 17 -10 5z"/>
<path d="M4260 2071 c0 -21 -33 -161 -46 -195 -5 -14 4 -16 60 -16 60 0 66 2
58 18 -5 9 -20 58 -32 107 -24 92 -40 127 -40 86z"/>
</g>
</svg>
